<svg width="20" height="20" viewBox="0 0 20 20" fill="none" xmlns="http://www.w3.org/2000/svg">
<g clip-path="url(#clip0_337_84)">
<path d="M9.99999 5.83331C9.04225 5.83269 8.11354 6.16202 7.37015 6.76588C6.62677 7.36975 6.11412 8.21127 5.91847 9.14881C5.72282 10.0864 5.85613 11.0627 6.29595 11.9135C6.73578 12.7642 7.45527 13.4375 8.33333 13.82V15.8333H11.6667V13.82C12.5439 13.4369 13.2625 12.7634 13.7017 11.9129C14.1409 11.0623 14.2739 10.0865 14.0783 9.14947C13.8828 8.21242 13.3706 7.37124 12.6279 6.76733C11.8852 6.16342 10.9572 5.83361 9.99999 5.83331Z" fill="#3FB079"/>
<path d="M17.5 9.99999H18.3333M15.4167 4.58332L16.25 3.74999M9.99999 2.49999V1.66666M4.58332 4.58332L3.74999 3.74999M2.49999 9.99999H1.66666M8.33332 18.3333H11.6667M14.1667 9.99999C14.1664 9.24883 13.9632 8.5117 13.5784 7.8666C13.1935 7.2215 12.6415 6.69243 11.9806 6.33536C11.3198 5.9783 10.5747 5.80652 9.82417 5.83822C9.07368 5.86992 8.34572 6.1039 7.71732 6.51542C7.08891 6.92693 6.58344 7.50067 6.25438 8.17592C5.92533 8.85117 5.78494 9.60282 5.84806 10.3513C5.91118 11.0998 6.17547 11.8173 6.61296 12.4279C7.05046 13.0385 7.64488 13.5195 8.33332 13.82V15.8333H11.6667V13.82C12.4099 13.4956 13.0423 12.9614 13.4864 12.2829C13.9305 11.6043 14.1669 10.8109 14.1667 9.99999Z" stroke="#3FB079" stroke-width="2" stroke-linecap="round" stroke-linejoin="round"/>
</g>
<defs>
<clipPath id="clip0_337_84">
<rect width="20" height="20" fill="white"/>
</clipPath>
</defs>
</svg>
