<svg width="24" height="24" viewBox="0 0 24 24" fill="none" xmlns="http://www.w3.org/2000/svg">
<path fill-rule="evenodd" clip-rule="evenodd" d="M12 21C13.1819 21 14.3522 20.7672 15.4442 20.3149C16.5361 19.8626 17.5282 19.1997 18.364 18.364C19.1997 17.5282 19.8626 16.5361 20.3149 15.4442C20.7672 14.3522 21 13.1819 21 12C21 10.8181 20.7672 9.64778 20.3149 8.55585C19.8626 7.46392 19.1997 6.47177 18.364 5.63604C17.5282 4.80031 16.5361 4.13738 15.4442 3.68508C14.3522 3.23279 13.1819 3 12 3C9.61305 3 7.32387 3.94821 5.63604 5.63604C3.94821 7.32387 3 9.61305 3 12C3 14.3869 3.94821 16.6761 5.63604 18.364C7.32387 20.0518 9.61305 21 12 21ZM12.707 15.707C12.6142 15.7999 12.5039 15.8736 12.3826 15.9239C12.2613 15.9742 12.1312 16.0002 11.9999 16.0002C11.8685 16.0002 11.7384 15.9744 11.6171 15.9242C11.4957 15.874 11.3854 15.8003 11.2925 15.7075C11.1996 15.6147 11.1259 15.5044 11.0756 15.3831C11.0253 15.2618 10.9993 15.1317 10.9993 15.0004C10.9992 14.7351 11.1045 14.4806 11.292 14.293L12.585 13H9C8.73478 13 8.48043 12.8946 8.29289 12.7071C8.10536 12.5196 8 12.2652 8 12C8 11.7348 8.10536 11.4804 8.29289 11.2929C8.48043 11.1054 8.73478 11 9 11H12.586L11.293 9.707C11.1055 9.51936 11.0002 9.26492 11.0003 8.99965C11.0004 8.73438 11.1059 8.48001 11.2935 8.2925C11.4811 8.10499 11.7356 7.9997 12.0009 7.9998C12.2661 7.99989 12.5205 8.10536 12.708 8.293L15.708 11.293C15.8955 11.4805 16.0008 11.7348 16.0008 12C16.0008 12.2652 15.8955 12.5195 15.708 12.707L12.708 15.707H12.707Z" fill="#A5A5A5"/>
</svg>
