<svg width="24" height="24" viewBox="0 0 24 24" fill="none" xmlns="http://www.w3.org/2000/svg">
<path d="M11.5 22C4.7 22 3 16.333 3 13.5V10C3 9.833 3.1 9.5 3.5 9.5C3.9 9.5 4 9.833 4 10V12C5.215 12.722 5.877 12.699 7 12V4C7 3.833 7.1 3.5 7.5 3.5C7.9 3.5 8 3.833 8 4V12C9.93 11.118 10.73 10.516 11 9V3C11 2.833 11.1 2.5 11.5 2.5C11.9 2.5 12 2.833 12 3V9C12.622 10.739 13.26 11.168 15 11V4C15 3.833 15.1 3.5 15.5 3.5C15.9 3.5 16 3.833 16 4V11C16.728 11.963 17.455 12.09 19 12V9C19 8.833 19.1 8.5 19.5 8.5C19.9 8.5 20 8.833 20 9V13.5C20 16.333 18.3 22 11.5 22Z" fill="#A5A5A5" stroke="#A5A5A5" stroke-width="2" stroke-linecap="round" stroke-linejoin="round"/>
</svg>
