<svg width="20" height="20" viewBox="0 0 20 20" fill="none" xmlns="http://www.w3.org/2000/svg">
<path fill-rule="evenodd" clip-rule="evenodd" d="M10 1.66666C5.39751 1.66666 1.66667 5.39749 1.66667 9.99999C1.66667 14.6025 5.39751 18.3333 10 18.3333C14.6025 18.3333 18.3333 14.6025 18.3333 9.99999C18.3333 5.39749 14.6025 1.66666 10 1.66666ZM10 13.3333C10.221 13.3333 10.433 13.2455 10.5893 13.0892C10.7455 12.933 10.8333 12.721 10.8333 12.5V9.99999C10.8333 9.77898 10.7455 9.56701 10.5893 9.41073C10.433 9.25445 10.221 9.16666 10 9.16666C9.77899 9.16666 9.56703 9.25445 9.41075 9.41073C9.25447 9.56701 9.16667 9.77898 9.16667 9.99999V12.5C9.16667 12.721 9.25447 12.933 9.41075 13.0892C9.56703 13.2455 9.77899 13.3333 10 13.3333ZM10.8333 7.49999C10.8333 7.721 10.7455 7.93296 10.5893 8.08925C10.433 8.24553 10.221 8.33332 10 8.33332C9.77899 8.33332 9.56703 8.24553 9.41075 8.08925C9.25447 7.93296 9.16667 7.721 9.16667 7.49999C9.16667 7.27898 9.25447 7.06701 9.41075 6.91073C9.56703 6.75445 9.77899 6.66666 10 6.66666C10.221 6.66666 10.433 6.75445 10.5893 6.91073C10.7455 7.06701 10.8333 7.27898 10.8333 7.49999Z" fill="#EC9459"/>
</svg>
