<svg width="24" height="24" viewBox="0 0 24 24" fill="none" xmlns="http://www.w3.org/2000/svg">
<path fill-rule="evenodd" clip-rule="evenodd" d="M6.85001 4.787C8.73101 3.44 10.958 3 12.456 3H13.461C13.7262 3 13.9806 3.10536 14.1681 3.29289C14.3557 3.48043 14.461 3.73478 14.461 4V7H16.475C16.7402 7 16.9946 7.10536 17.1821 7.29289C17.3696 7.48043 17.475 7.73478 17.475 8V10H20.494C20.7592 10 21.0136 10.1054 21.2011 10.2929C21.3886 10.4804 21.494 10.7348 21.494 11V12C21.494 15.503 20.099 17.808 18.197 19.206C16.347 20.566 14.11 21 12.457 21C10.804 21 8.56701 20.566 6.71501 19.206C4.81401 17.808 3.41901 15.503 3.41901 12C3.41901 8.472 4.91901 6.172 6.85001 4.787ZM9.44201 7C9.17679 7 8.92244 7.10536 8.7349 7.29289C8.54736 7.48043 8.44201 7.73478 8.44201 8C8.44201 8.26522 8.54736 8.51957 8.7349 8.70711C8.92244 8.89464 9.17679 9 9.44201 9C9.70722 9 9.96258 8.89464 10.1501 8.70711C10.3376 8.51957 10.443 8.26522 10.443 8C10.443 7.73478 10.3376 7.48043 10.1501 7.29289C9.96258 7.10536 9.70722 7 9.44201 7ZM6.43201 12C6.43201 11.7348 6.53736 11.4804 6.7249 11.2929C6.91244 11.1054 7.16679 11 7.43201 11H7.43401C7.69922 11 7.95358 11.1054 8.14111 11.2929C8.32865 11.4804 8.43401 11.7348 8.43401 12C8.43401 12.2652 8.32865 12.5196 8.14111 12.7071C7.95358 12.8946 7.69922 13 7.43401 13H7.43301C7.16779 13 6.91344 12.8946 6.7259 12.7071C6.53836 12.5196 6.43201 12.2652 6.43201 12ZM12.456 12C12.1908 12 11.9364 12.1054 11.7489 12.2929C11.5614 12.4804 11.456 12.7348 11.456 13C11.456 13.2652 11.5614 13.5196 11.7489 13.7071C11.9364 13.8946 12.1908 14 12.456 14C12.7212 14 12.9766 13.8946 13.1641 13.7071C13.3516 13.5196 13.457 13.2652 13.457 13C13.457 12.7348 13.3516 12.4804 13.1641 12.2929C12.9766 12.1054 12.7212 12 12.456 12ZM9.44601 16C9.44601 15.7348 9.55136 15.4804 9.7389 15.2929C9.92644 15.1054 10.1808 15 10.446 15H10.448C10.7132 15 10.9676 15.1054 11.1551 15.2929C11.3426 15.4804 11.448 15.7348 11.448 16C11.448 16.2652 11.3426 16.5196 11.1551 16.7071C10.9676 16.8946 10.7132 17 10.448 17H10.447C10.1818 17 9.92744 16.8946 9.7399 16.7071C9.55236 16.5196 9.44601 16.2652 9.44601 16ZM16.475 14C16.2098 14 15.9554 14.1054 15.7679 14.2929C15.5804 14.4804 15.475 14.7348 15.475 15C15.475 15.2652 15.5804 15.5196 15.7679 15.7071C15.9554 15.8946 16.2098 16 16.475 16C16.7402 16 16.9946 15.8946 17.1821 15.7071C17.3696 15.5196 17.475 15.2652 17.475 15C17.475 14.7348 17.3696 14.4804 17.1821 14.2929C16.9946 14.1054 16.7402 14 16.475 14Z" fill="#A5A5A5"/>
</svg>
