<svg width="24" height="24" viewBox="0 0 24 24" fill="none" xmlns="http://www.w3.org/2000/svg">
<path fill-rule="evenodd" clip-rule="evenodd" d="M7.293 3.29296C7.48053 3.10549 7.73484 3.00017 8 3.00017C8.26516 3.00017 8.51947 3.10549 8.707 3.29296L10.583 5.16896C11.0476 5.05998 11.5228 5.00329 12 4.99996C12.5147 5.00129 12.9963 5.04796 13.445 5.13996L15.293 3.29296C15.3852 3.19745 15.4956 3.12127 15.6176 3.06886C15.7396 3.01645 15.8708 2.98886 16.0036 2.98771C16.1364 2.98655 16.2681 3.01186 16.391 3.06214C16.5138 3.11242 16.6255 3.18667 16.7194 3.28056C16.8133 3.37446 16.8875 3.48611 16.9378 3.60901C16.9881 3.7319 17.0134 3.86358 17.0123 3.99636C17.0111 4.12914 16.9835 4.26036 16.9311 4.38236C16.8787 4.50437 16.8025 4.61471 16.707 4.70696L15.45 5.96496C16.2104 6.48222 16.8289 7.18189 17.249 7.99996H18C18.173 7.99996 18.456 7.93996 18.666 7.78796C18.825 7.67396 19 7.47396 19 6.99996C19 6.73474 19.1054 6.48039 19.2929 6.29285C19.4804 6.10532 19.7348 5.99996 20 5.99996C20.2652 5.99996 20.5196 6.10532 20.7071 6.29285C20.8946 6.48039 21 6.73474 21 6.99996C21 8.12596 20.509 8.92596 19.834 9.41196C19.2967 9.7899 18.6569 9.99502 18 9.99996H17.914C17.974 10.36 18 10.7 18 11V12H20C20.2652 12 20.5196 12.1053 20.7071 12.2929C20.8946 12.4804 21 12.7347 21 13C21 13.2652 20.8946 13.5195 20.7071 13.7071C20.5196 13.8946 20.2652 14 20 14H18V15C18 15.3 17.974 15.64 17.914 16H18C18.493 16 19.211 16.14 19.834 16.588C20.51 17.075 21 17.875 21 19C21 19.2652 20.8946 19.5195 20.7071 19.7071C20.5196 19.8946 20.2652 20 20 20C19.7348 20 19.4804 19.8946 19.2929 19.7071C19.1054 19.5195 19 19.2652 19 19C19 18.526 18.825 18.326 18.666 18.212C18.4689 18.0789 18.2377 18.0053 18 18H17.249C16.876 18.7265 16.3458 19.3609 15.697 19.857C14.766 20.563 13.543 21 12 21C10.457 21 9.235 20.563 8.303 19.857C7.603 19.327 7.103 18.669 6.751 18H6C5.827 18 5.544 18.06 5.334 18.212C5.175 18.326 5 18.526 5 19C5 19.2652 4.89464 19.5195 4.70711 19.7071C4.51957 19.8946 4.26522 20 4 20C3.73478 20 3.48043 19.8946 3.29289 19.7071C3.10536 19.5195 3 19.2652 3 19C3 17.874 3.492 17.074 4.166 16.588C4.70332 16.21 5.3431 16.0049 6 16H6.086C6.026 15.64 6 15.3 6 15V14H4C3.73478 14 3.48043 13.8946 3.29289 13.7071C3.10536 13.5195 3 13.2652 3 13C3 12.7347 3.10536 12.4804 3.29289 12.2929C3.48043 12.1053 3.73478 12 4 12H6V11C6 10.6513 6.02167 10.318 6.065 9.99996H6C5.507 9.99996 4.789 9.85996 4.166 9.41196C3.492 8.92596 3 8.12596 3 6.99996C3 6.73474 3.10536 6.48039 3.29289 6.29285C3.48043 6.10532 3.73478 5.99996 4 5.99996C4.26522 5.99996 4.51957 6.10532 4.70711 6.29285C4.89464 6.48039 5 6.73474 5 6.99996C5 7.47396 5.175 7.67396 5.334 7.78796C5.544 7.93996 5.827 7.99996 6 7.99996H6.696C7.13795 7.17818 7.78753 6.48654 8.58 5.99396L7.293 4.70696C7.10553 4.51943 7.00021 4.26512 7.00021 3.99996C7.00021 3.73479 7.10553 3.48049 7.293 3.29296ZM12 8.99996C11.7348 8.99996 11.4804 9.10532 11.2929 9.29285C11.1054 9.48039 11 9.73474 11 9.99996C11 10.2652 11.1054 10.5195 11.2929 10.7071C11.4804 10.8946 11.7348 11 12 11H12.001C12.2662 11 12.5206 10.8946 12.7081 10.7071C12.8956 10.5195 13.001 10.2652 13.001 9.99996C13.001 9.73474 12.8956 9.48039 12.7081 9.29285C12.5206 9.10532 12.2662 8.99996 12.001 8.99996H12ZM9 13C9 12.7347 9.10536 12.4804 9.29289 12.2929C9.48043 12.1053 9.73478 12 10 12H10.001C10.2662 12 10.5206 12.1053 10.7081 12.2929C10.8956 12.4804 11.001 12.7347 11.001 13C11.001 13.2652 10.8956 13.5195 10.7081 13.7071C10.5206 13.8946 10.2662 14 10.001 14H10C9.73478 14 9.48043 13.8946 9.29289 13.7071C9.10536 13.5195 9 13.2652 9 13ZM14 12C13.7348 12 13.4804 12.1053 13.2929 12.2929C13.1054 12.4804 13 12.7347 13 13C13 13.2652 13.1054 13.5195 13.2929 13.7071C13.4804 13.8946 13.7348 14 14 14H14.001C14.2662 14 14.5206 13.8946 14.7081 13.7071C14.8956 13.5195 15.001 13.2652 15.001 13C15.001 12.7347 14.8956 12.4804 14.7081 12.2929C14.5206 12.1053 14.2662 12 14.001 12H14Z" fill="#A5A5A5"/>
</svg>
