<svg width="24" height="24" viewBox="0 0 24 24" fill="none" xmlns="http://www.w3.org/2000/svg">
<path fill-rule="evenodd" clip-rule="evenodd" d="M8 3C8 2.73478 8.10536 2.48043 8.29289 2.29289C8.48043 2.10536 8.73478 2 9 2H15C15.2652 2 15.5196 2.10536 15.7071 2.29289C15.8946 2.48043 16 2.73478 16 3C16 3.26522 15.8946 3.51957 15.7071 3.70711C15.5196 3.89464 15.2652 4 15 4H9C8.73478 4 8.48043 3.89464 8.29289 3.70711C8.10536 3.51957 8 3.26522 8 3ZM3 14C2.99985 12.3051 3.47831 10.6446 4.38029 9.20964C5.28228 7.77468 6.57113 6.62358 8.0985 5.88884C9.62586 5.1541 11.3297 4.86558 13.0138 5.0565C14.6979 5.24742 16.2939 5.91 17.618 6.968L18.293 6.293C18.3852 6.19749 18.4956 6.12131 18.6176 6.0689C18.7396 6.01649 18.8708 5.9889 19.0036 5.98775C19.1364 5.9866 19.2681 6.0119 19.391 6.06218C19.5138 6.11246 19.6255 6.18671 19.7194 6.2806C19.8133 6.3745 19.8875 6.48615 19.9378 6.60905C19.9881 6.73194 20.0134 6.86362 20.0123 6.9964C20.0111 7.12918 19.9835 7.2604 19.9311 7.3824C19.8787 7.50441 19.8025 7.61475 19.707 7.707L19.032 8.382C19.9292 9.50526 20.5443 10.8271 20.8258 12.2369C21.1073 13.6467 21.0469 15.1034 20.6498 16.4851C20.2527 17.8668 19.5304 19.1333 18.5433 20.1785C17.5562 21.2237 16.3331 22.0172 14.9764 22.4926C13.6196 22.9681 12.1687 23.1116 10.7452 22.9111C9.32158 22.7107 7.96672 22.1721 6.79402 21.3405C5.62132 20.509 4.66489 19.4085 4.00479 18.1314C3.3447 16.8543 3.00016 15.4376 3 14ZM13 10C13 9.73478 12.8946 9.48043 12.7071 9.29289C12.5196 9.10536 12.2652 9 12 9C11.7348 9 11.4804 9.10536 11.2929 9.29289C11.1054 9.48043 11 9.73478 11 10V14C11 14.2652 11.1054 14.5196 11.2929 14.7071C11.4804 14.8946 11.7348 15 12 15C12.2652 15 12.5196 14.8946 12.7071 14.7071C12.8946 14.5196 13 14.2652 13 14V10Z" fill="#A5A5A5"/>
</svg>
