<svg width="20" height="20" viewBox="0 0 20 20" fill="none" xmlns="http://www.w3.org/2000/svg">
<path fill-rule="evenodd" clip-rule="evenodd" d="M5 2.5C4.33696 2.5 3.70107 2.76339 3.23223 3.23223C2.76339 3.70107 2.5 4.33696 2.5 5V15C2.5 15.663 2.76339 16.2989 3.23223 16.7678C3.70107 17.2366 4.33696 17.5 5 17.5H15C15.663 17.5 16.2989 17.2366 16.7678 16.7678C17.2366 16.2989 17.5 15.663 17.5 15V5C17.5 4.33696 17.2366 3.70107 16.7678 3.23223C16.2989 2.76339 15.663 2.5 15 2.5H5ZM8.33333 6.66667C8.33333 6.44565 8.42113 6.23369 8.57741 6.07741C8.73369 5.92113 8.94565 5.83333 9.16667 5.83333H14.1667C14.3877 5.83333 14.5996 5.92113 14.7559 6.07741C14.9122 6.23369 15 6.44565 15 6.66667C15 6.88768 14.9122 7.09964 14.7559 7.25592C14.5996 7.4122 14.3877 7.5 14.1667 7.5H9.16667C8.94565 7.5 8.73369 7.4122 8.57741 7.25592C8.42113 7.09964 8.33333 6.88768 8.33333 6.66667ZM8.33333 10C8.33333 9.77899 8.42113 9.56702 8.57741 9.41074C8.73369 9.25446 8.94565 9.16667 9.16667 9.16667H14.1667C14.3877 9.16667 14.5996 9.25446 14.7559 9.41074C14.9122 9.56702 15 9.77899 15 10C15 10.221 14.9122 10.433 14.7559 10.5893C14.5996 10.7455 14.3877 10.8333 14.1667 10.8333H9.16667C8.94565 10.8333 8.73369 10.7455 8.57741 10.5893C8.42113 10.433 8.33333 10.221 8.33333 10ZM8.33333 13.3333C8.33333 13.1123 8.42113 12.9004 8.57741 12.7441C8.73369 12.5878 8.94565 12.5 9.16667 12.5H14.1667C14.3877 12.5 14.5996 12.5878 14.7559 12.7441C14.9122 12.9004 15 13.1123 15 13.3333C15 13.5543 14.9122 13.7663 14.7559 13.9226C14.5996 14.0789 14.3877 14.1667 14.1667 14.1667H9.16667C8.94565 14.1667 8.73369 14.0789 8.57741 13.9226C8.42113 13.7663 8.33333 13.5543 8.33333 13.3333ZM5.83333 5.83333C5.61232 5.83333 5.40036 5.92113 5.24408 6.07741C5.0878 6.23369 5 6.44565 5 6.66667C5 6.88768 5.0878 7.09964 5.24408 7.25592C5.40036 7.4122 5.61232 7.5 5.83333 7.5C6.05435 7.5 6.26714 7.4122 6.42342 7.25592C6.5797 7.09964 6.6675 6.88768 6.6675 6.66667C6.6675 6.44565 6.5797 6.23369 6.42342 6.07741C6.26714 5.92113 6.05435 5.83333 5.83333 5.83333ZM5 10C5 9.77899 5.0878 9.56702 5.24408 9.41074C5.40036 9.25446 5.61232 9.16667 5.83333 9.16667C6.05435 9.16667 6.26714 9.25446 6.42342 9.41074C6.5797 9.56702 6.6675 9.77899 6.6675 10C6.6675 10.221 6.5797 10.433 6.42342 10.5893C6.26714 10.7455 6.05518 10.8333 5.83417 10.8333C5.61315 10.8333 5.40036 10.7455 5.24408 10.5893C5.0878 10.433 5 10.221 5 10ZM5.83333 12.5C5.61232 12.5 5.40036 12.5878 5.24408 12.7441C5.0878 12.9004 5 13.1123 5 13.3333C5 13.5543 5.0878 13.7663 5.24408 13.9226C5.40036 14.0789 5.61232 14.1667 5.83333 14.1667C6.05435 14.1667 6.26714 14.0789 6.42342 13.9226C6.5797 13.7663 6.6675 13.5543 6.6675 13.3333C6.6675 13.1123 6.5797 12.9004 6.42342 12.7441C6.26714 12.5878 6.05435 12.5 5.83333 12.5Z" fill="#499BE2"/>
</svg>
