<svg width="20" height="20" viewBox="0 0 20 20" fill="none" xmlns="http://www.w3.org/2000/svg">
<path fill-rule="evenodd" clip-rule="evenodd" d="M9.5375 1.80667C9.70896 1.6923 9.91671 1.64553 10.1206 1.67539C10.3246 1.70525 10.5102 1.80961 10.6417 1.96833C11.0317 2.43917 12.185 3.57666 13.5142 4.2075C14.7178 4.84566 15.7248 5.79966 16.427 6.96702C17.1293 8.13439 17.5002 9.47102 17.5 10.8333C17.5001 12.0547 17.2019 13.2577 16.6313 14.3377C16.0607 15.4176 15.235 16.3419 14.226 17.0301C13.2169 17.7183 12.055 18.1497 10.8413 18.2867C9.62761 18.4237 8.3988 18.2622 7.26171 17.8163C6.12461 17.3703 5.11363 16.6534 4.31665 15.7278C3.51966 14.8023 2.96079 13.6961 2.6886 12.5054C2.41641 11.3147 2.43915 10.0755 2.75483 8.89558C3.07052 7.71567 3.6696 6.6307 4.5 5.735C4.59341 5.63427 4.71027 5.55819 4.84018 5.51354C4.9701 5.46889 5.10904 5.45705 5.24463 5.47908C5.38023 5.5011 5.50828 5.5563 5.61738 5.63977C5.72649 5.72324 5.81327 5.83239 5.87 5.9575C5.97583 6.1925 6.2625 6.51 6.69667 6.84583L6.76583 6.89917C6.9325 5.72417 7.2925 4.73917 7.72 3.95083C8.29167 2.89417 8.995 2.16833 9.5375 1.80667ZM9.93417 8.4875C10.1093 8.36306 10.3258 8.3111 10.5384 8.34247C10.751 8.37383 10.9432 8.4861 11.075 8.65583C11.11 8.70083 11.2067 8.81083 11.3442 8.93417C11.4866 9.06541 11.6465 9.17645 11.8192 9.26417C12.7358 9.79167 13.3333 10.8058 13.3333 11.9442C13.3333 13.5808 12.0775 15 10.4167 15C8.75583 15 7.5 13.5808 7.5 11.9442C7.5 11.1583 7.78417 10.4342 8.26 9.88667C8.36066 9.7711 8.49124 9.68553 8.63737 9.63936C8.78351 9.5932 8.93955 9.58823 9.08833 9.625C9.12083 9.54833 9.155 9.475 9.19 9.405C9.40083 8.99 9.675 8.67167 9.93417 8.4875Z" fill="#EC5959"/>
</svg>
