<svg width="20" height="20" viewBox="0 0 20 20" fill="none" xmlns="http://www.w3.org/2000/svg">
<path fill-rule="evenodd" clip-rule="evenodd" d="M6.66667 2.08376C6.66667 1.86275 6.75446 1.65079 6.91074 1.4945C7.06703 1.33822 7.27899 1.25043 7.5 1.25043H12.5C12.721 1.25043 12.933 1.33822 13.0893 1.4945C13.2455 1.65079 13.3333 1.86275 13.3333 2.08376C13.3333 2.30477 13.2455 2.51674 13.0893 2.67302C12.933 2.8293 12.721 2.91709 12.5 2.91709H7.5C7.27899 2.91709 7.06703 2.8293 6.91074 2.67302C6.75446 2.51674 6.66667 2.30477 6.66667 2.08376ZM2.5 11.2504C2.49988 9.83801 2.89859 8.45426 3.65024 7.25846C4.4019 6.06266 5.47594 5.10341 6.74875 4.49113C8.02155 3.87884 9.44138 3.63841 10.8448 3.79751C12.2482 3.95661 13.5782 4.50876 14.6817 5.39043L15.2442 4.82793C15.321 4.74834 15.413 4.68485 15.5147 4.64118C15.6163 4.5975 15.7257 4.57451 15.8363 4.57355C15.947 4.57259 16.0567 4.59367 16.1591 4.63558C16.2615 4.67748 16.3546 4.73935 16.4328 4.8176C16.5111 4.89584 16.573 4.98889 16.6149 5.0913C16.6568 5.19371 16.6778 5.30345 16.6769 5.41409C16.6759 5.52474 16.6529 5.63409 16.6093 5.73576C16.5656 5.83743 16.5021 5.92939 16.4225 6.00626L15.86 6.56876C16.6077 7.50481 17.1203 8.60636 17.3548 9.7812C17.5894 10.956 17.5391 12.17 17.2082 13.3214C16.8772 14.4728 16.2753 15.5282 15.4527 16.3991C14.6302 17.2701 13.6109 17.9314 12.4803 18.3276C11.3497 18.7238 10.1406 18.8434 8.9543 18.6764C7.76798 18.5093 6.63894 18.0605 5.66168 17.3675C4.68443 16.6746 3.8874 15.7575 3.33733 14.6933C2.78725 13.629 2.50013 12.4484 2.5 11.2504ZM10.8333 7.91709C10.8333 7.69608 10.7455 7.48412 10.5893 7.32784C10.433 7.17156 10.221 7.08376 10 7.08376C9.77899 7.08376 9.56703 7.17156 9.41074 7.32784C9.25446 7.48412 9.16667 7.69608 9.16667 7.91709V11.2504C9.16667 11.4714 9.25446 11.6834 9.41074 11.8397C9.56703 11.996 9.77899 12.0838 10 12.0838C10.221 12.0838 10.433 11.996 10.5893 11.8397C10.7455 11.6834 10.8333 11.4714 10.8333 11.2504V7.91709Z" fill="#3FB079"/>
</svg>
