<svg width="24" height="24" viewBox="0 0 24 24" fill="none" xmlns="http://www.w3.org/2000/svg">
<path fill-rule="evenodd" clip-rule="evenodd" d="M15.586 3C15.9611 2.62506 16.4697 2.41443 17 2.41443C17.5303 2.41443 18.0389 2.62506 18.414 3L21 5.586C21.3749 5.96106 21.5856 6.46967 21.5856 7C21.5856 7.53033 21.3749 8.03895 21 8.414L19.414 10L14 4.586L15.586 3ZM12.586 6L3.586 15C3.2109 15.375 3.00011 15.8836 3 16.414V19C3 19.5304 3.21071 20.0391 3.58579 20.4142C3.96086 20.7893 4.46957 21 5 21H7.586C8.11639 20.9999 8.62501 20.7891 9 20.414L18 11.414L12.586 6Z" fill="#A5A5A5"/>
</svg>
