<svg width="24" height="24" viewBox="0 0 24 24" fill="none" xmlns="http://www.w3.org/2000/svg">
<path fill-rule="evenodd" clip-rule="evenodd" d="M22 11C22.0029 13.1642 21.3008 15.2704 20 17V19C20 19.7956 19.6839 20.5587 19.1213 21.1213C18.5587 21.6839 17.7957 22 17 22V21C17 20.7348 16.8947 20.4804 16.7071 20.2929C16.5196 20.1054 16.2652 20 16 20C15.7348 20 15.4804 20.1054 15.2929 20.2929C15.1054 20.4804 15 20.7348 15 21V22H13V21C13 20.7348 12.8947 20.4804 12.7071 20.2929C12.5196 20.1054 12.2652 20 12 20C11.7348 20 11.4804 20.1054 11.2929 20.2929C11.1054 20.4804 11 20.7348 11 21V22H9.00001V21C9.00001 20.7348 8.89465 20.4804 8.70712 20.2929C8.51958 20.1054 8.26523 20 8.00001 20C7.73479 20 7.48044 20.1054 7.2929 20.2929C7.10537 20.4804 7.00001 20.7348 7.00001 21V22C6.20436 22 5.4413 21.6839 4.87869 21.1213C4.31608 20.5587 4.00001 19.7956 4.00001 19V17C2.69919 15.2704 1.99711 13.1642 2.00001 11C2.00001 8.221 3.13601 5.942 4.99001 4.373C6.82801 2.817 9.31801 2 12 2C14.682 2 17.172 2.817 19.01 4.373C20.863 5.942 22 8.22 22 11ZM8.00001 9C7.46958 9 6.96087 9.21071 6.5858 9.58579C6.21072 9.96086 6.00001 10.4696 6.00001 11C6.00001 11.5304 6.21072 12.0391 6.5858 12.4142C6.96087 12.7893 7.46958 13 8.00001 13C8.53044 13 9.03915 12.7893 9.41422 12.4142C9.78929 12.0391 10 11.5304 10 11C10 10.4696 9.78929 9.96086 9.41422 9.58579C9.03915 9.21071 8.53044 9 8.00001 9ZM12.894 14.415C12.725 14.16 12.38 14 12 14C11.62 14 11.275 14.16 11.106 14.415L10.106 15.915C10.03 16.0238 9.99297 16.155 10.0008 16.2875C10.0086 16.4199 10.0608 16.5459 10.149 16.645C10.332 16.865 10.653 17 11 17H13C13.347 17 13.668 16.865 13.85 16.644C13.9384 16.545 13.9908 16.4191 13.9988 16.2866C14.0067 16.1542 13.9698 16.0229 13.894 15.914L12.894 14.414V14.415ZM14 11C14 10.4696 14.2107 9.96086 14.5858 9.58579C14.9609 9.21071 15.4696 9 16 9C16.5304 9 17.0391 9.21071 17.4142 9.58579C17.7893 9.96086 18 10.4696 18 11C18 11.5304 17.7893 12.0391 17.4142 12.4142C17.0391 12.7893 16.5304 13 16 13C15.4696 13 14.9609 12.7893 14.5858 12.4142C14.2107 12.0391 14 11.5304 14 11Z" fill="#A5A5A5"/>
</svg>
